<?xml version="1.0" encoding="iso-8859-1"?>
<!-- Generator: Adobe Illustrator 19.1.0, SVG Export Plug-In . SVG Version: 6.00 Build 0)  -->
<svg version="1.1" id="Capa_1" xmlns="http://www.w3.org/2000/svg" xmlns:xlink="http://www.w3.org/1999/xlink" x="0px" y="0px"
	 viewBox="0 0 63 63" style="enable-background:new 0 0 63 63;" xml:space="preserve">
<g>
	<g id="group-32svg">
		<path id="path-1_24_" style="fill:#EDC951;" d="M34.624,18.802c-10.293,0-18.724,8.08-19.459,18.307
			c-0.034,0.479-0.051,6.65-0.051,7.65h39.021c0-1-0.013-7.029-0.038-7.439C53.464,26.99,44.987,18.802,34.624,18.802z"/>
		<path id="path-2_24_" style="fill:#E56A77;" d="M14.182,58.769h39v-9.006h-39V58.769z"/>
		<path id="path-3_24_" d="M51.135,44.759H12.114c-0.829,0-1.5-0.672-1.5-1.501c0-0.067,0.012-6.897,0.055-7.507
			C11.466,24.661,20.474,16.3,31.624,16.3c11.083,0,20.294,8.643,20.97,19.677c0.032,0.528,0.041,7.215,0.041,7.281
			C52.635,44.087,51.963,44.759,51.135,44.759z M13.617,41.757h36.015c-0.005-2.114-0.017-5.277-0.033-5.601
			c-0.579-9.449-8.475-16.854-17.975-16.854c-9.558,0-17.28,7.164-17.963,16.663C13.64,36.325,13.623,39.597,13.617,41.757z"/>
		<path id="path-4_24_" d="M50.682,58.769h-39c-0.828,0-1.5-0.672-1.5-1.501v-9.006c0-0.829,0.672-1.501,1.5-1.501h39
			c0.829,0,1.5,0.672,1.5,1.501v9.006C52.182,58.097,51.511,58.769,50.682,58.769z M13.182,55.767h36v-6.004h-36V55.767z"/>
		<path id="path-5_24_" d="M51.135,26.078c-0.389,0-0.777-0.151-1.071-0.45c-0.58-0.591-0.571-1.542,0.02-2.123l10.365-10.182
			c0.59-0.58,1.541-0.572,2.121,0.02c0.581,0.591,0.572,1.542-0.019,2.122L52.185,25.648C51.893,25.935,51.514,26.078,51.135,26.078
			z"/>
		<path id="path-6_23_" d="M11.865,26.078c-0.379,0-0.759-0.143-1.051-0.43L0.449,15.465c-0.591-0.58-0.6-1.531-0.019-2.122
			c0.579-0.592,1.529-0.601,2.121-0.02l10.365,10.182c0.591,0.581,0.6,1.532,0.019,2.123C12.642,25.927,12.254,26.078,11.865,26.078
			z"/>
		<path id="path-7_22_" d="M31.682,15.239c-0.828,0-1.5-0.673-1.5-1.501V5.732c0-0.829,0.672-1.501,1.5-1.501
			c0.829,0,1.5,0.672,1.5,1.501v8.006C33.182,14.566,32.511,15.239,31.682,15.239z"/>
		<path id="path-8_21_" d="M19.643,35.722c-0.053,0-0.107-0.003-0.161-0.008c-0.823-0.088-1.42-0.828-1.332-1.653
			c0.883-8.279,8.927-11.635,13.058-12.252c0.822-0.122,1.583,0.442,1.705,1.263c0.123,0.819-0.441,1.581-1.259,1.706l0,0
			c-0.394,0.06-9.665,1.576-10.521,9.602C21.051,35.15,20.4,35.722,19.643,35.722z"/>
	</g>
</g>
<g>
</g>
<g>
</g>
<g>
</g>
<g>
</g>
<g>
</g>
<g>
</g>
<g>
</g>
<g>
</g>
<g>
</g>
<g>
</g>
<g>
</g>
<g>
</g>
<g>
</g>
<g>
</g>
<g>
</g>
</svg>
