<?xml version="1.0" ?><svg data-name="Capa 1" id="Capa_1" viewBox="0 0 20 19.84" xmlns="http://www.w3.org/2000/svg"><path d="M7.86,14.05A.41.41,0,0,1,7.68,14a4.68,4.68,0,0,1-.12-8.06.39.39,0,0,1,.52.13A.36.36,0,0,1,8,6.58a3.93,3.93,0,0,0,.1,6.77.37.37,0,0,1,.14.51A.39.39,0,0,1,7.86,14.05Z"/><path d="M12,14.13a.38.38,0,0,1-.34-.2.39.39,0,0,1,.16-.51,3.92,3.92,0,0,0-.06-7,.37.37,0,0,1-.16-.5.37.37,0,0,1,.5-.17,4.68,4.68,0,0,1,.07,8.34A.38.38,0,0,1,12,14.13Z"/><path d="M10,12a2,2,0,1,1,2-2A2,2,0,0,1,10,12Zm0-3.3a1.28,1.28,0,1,0,1.28,1.28A1.28,1.28,0,0,0,10,8.66Z"/><path d="M6.66,16.17a.41.41,0,0,1-.19-.05A7.13,7.13,0,0,1,2.89,10a7.06,7.06,0,0,1,3.4-6.07A.37.37,0,0,1,6.81,4a.38.38,0,0,1-.12.52A6.3,6.3,0,0,0,3.64,10a6.39,6.39,0,0,0,3.2,5.52A.37.37,0,0,1,7,16,.38.38,0,0,1,6.66,16.17Z"/><path d="M13.11,16.3a.37.37,0,0,1-.33-.2.38.38,0,0,1,.15-.51,6.36,6.36,0,0,0-.09-11.34.38.38,0,0,1-.17-.5.39.39,0,0,1,.51-.17,7.11,7.11,0,0,1,.1,12.67A.34.34,0,0,1,13.11,16.3Z"/></svg>