<svg width="43" height="43" viewBox="0 0 43 43" fill="none" xmlns="http://www.w3.org/2000/svg">
<path d="M41.0505 30.9578L35.7567 25.5853C34.8817 24.7046 33.7005 24.1761 32.6067 24.1761C31.4255 24.1761 30.3755 24.6606 29.4567 25.5853L26.3942 28.6679C26.263 28.5798 26.088 28.4917 25.9567 28.4477C25.9567 28.4477 25.913 28.4477 25.913 28.4037L25.8692 28.3596C25.4755 28.0954 25.038 27.8312 24.513 27.611C21.8442 25.9376 19.3505 23.6037 16.813 20.4771C15.6317 18.9798 14.8005 17.6587 14.1442 16.2055C14.8442 15.633 15.3692 15.0605 15.763 14.6202L17.1192 13.255C18.1692 12.2862 18.6942 11.1853 18.6942 10.0404C18.6942 8.85138 18.1692 7.75046 17.163 6.69358L13.0067 2.51009C12.613 2.11376 12.2192 1.71743 11.7817 1.3211C10.9067 0.484404 9.81295 0 8.67545 0C7.4067 0 6.3567 0.440367 5.3942 1.40917L2.20046 4.62385C0.931705 5.81284 0.187955 7.31009 0.0129551 9.15963V9.20367C-0.0745449 11.4936 0.275453 13.6073 1.23795 16.2495C2.7692 20.389 5.08796 24.2642 8.54421 28.5358C13.0505 33.644 18.1255 37.6073 23.7692 40.3376L23.9005 40.3817C25.563 41.1303 28.713 42.5394 32.213 42.7596H32.6942C35.013 42.7596 36.763 42.011 38.2067 40.4257C38.7317 39.8092 39.3005 39.2367 39.7817 38.7083C40.1755 38.4 40.438 38.0917 40.7005 37.7835L41.0505 37.4312L41.138 37.3431C42.9755 35.3174 42.9755 32.8514 41.0505 30.9578ZM39.5192 35.8459L39.0817 36.2862L39.038 36.3743C38.8192 36.6385 38.6442 36.8587 38.4255 37.0349L38.2942 37.167C37.7692 37.6954 37.1567 38.3119 36.5442 39.0165C35.538 40.1174 34.4005 40.6018 32.6942 40.6018H32.3442C29.2817 40.3817 26.4817 39.1486 24.8192 38.4L24.7317 38.356C19.3505 35.7578 14.4942 31.9706 10.2505 27.1266C6.92545 23.0752 4.73796 19.3761 3.29421 15.5009C2.41921 13.0789 2.11296 11.3174 2.20046 9.33578C2.33171 8.05872 2.81296 7.04587 3.68796 6.25321L6.92545 2.9945C7.45045 2.46605 7.97545 2.24587 8.6317 2.24587C9.20045 2.24587 9.72545 2.51009 10.2067 2.95046L10.2505 2.9945C10.6442 3.34679 11.038 3.74312 11.4317 4.13945L15.588 8.32294C16.3755 9.1156 16.5067 9.73211 16.5067 10.0844C16.5067 10.4367 16.4192 10.9651 15.588 11.7138L14.188 13.1229C13.7067 13.6514 13.138 14.2239 12.3942 14.8404L12.3067 14.9284L12.2192 15.0605C11.8255 15.589 11.7817 16.0734 12.0005 16.778L12.0442 16.9541L12.088 17.1303C12.8317 18.7596 13.7505 20.2569 15.063 21.9303C17.7755 25.2771 20.488 27.7872 23.3755 29.5927L23.5067 29.6807C23.8567 29.8569 24.2067 30.033 24.513 30.2092C24.6442 30.3413 24.8192 30.4294 24.9505 30.4734C25.1255 30.5615 25.2567 30.6055 25.3442 30.6936L25.6505 30.9138H25.738L25.8692 30.9578C26.1317 31.0459 26.3067 31.0459 26.438 31.0459C26.8755 31.0459 27.2692 30.8697 27.663 30.4734L30.9442 27.1706C31.4692 26.6422 31.9505 26.422 32.563 26.422C33.2192 26.422 33.8317 26.8183 34.1817 27.1706L39.5192 32.5431C40.5692 33.6 40.613 34.7009 39.5192 35.8459Z" fill="black"/>
</svg>
