<svg width="34" height="23" viewBox="0 0 34 23" fill="none" xmlns="http://www.w3.org/2000/svg">
<path fill-rule="evenodd" clip-rule="evenodd" d="M0.318176 4.76C0.318176 2.38518 2.2515 0.459999 4.63636 0.459999H21.0454C23.4303 0.459999 25.3636 2.38518 25.3636 4.76V6.87667L31.9219 3.97411C32.1891 3.85588 32.4981 3.88027 32.7434 4.03889C32.9885 4.19752 33.1364 4.46889 33.1364 4.76V18.52C33.1364 18.8112 32.9885 19.0824 32.7434 19.241C32.4981 19.3998 32.1891 19.424 31.9219 19.3059L25.3636 16.4034V18.52C25.3636 20.8948 23.4303 22.82 21.0454 22.82H4.63636C2.2515 22.82 0.318176 20.8948 0.318176 18.52V4.76ZM4.63636 2.18C3.20543 2.18 2.04545 3.3351 2.04545 4.76V18.52C2.04545 19.9448 3.20543 21.1 4.63636 21.1H21.0454C22.4763 21.1 23.6364 19.9448 23.6364 18.52V16.4034C23.6364 15.1586 24.923 14.3261 26.0651 14.8316L31.4091 17.1966V6.08333L26.0651 8.44837C24.923 8.95387 23.6364 8.12136 23.6364 6.87667V4.76C23.6364 3.3351 22.4763 2.18 21.0454 2.18H4.63636Z" fill="black"/>
</svg>
