<svg width="34" height="37" viewBox="0 0 34 37" fill="none" xmlns="http://www.w3.org/2000/svg">
<path d="M17 15.4408C15.8482 15.4554 14.7181 15.1273 13.7533 14.4981C12.7885 13.8688 12.0326 12.9669 11.5816 11.907C11.1306 10.8471 11.005 9.67702 11.2207 8.54553C11.4364 7.41404 11.9837 6.37224 12.7929 5.55255C13.6022 4.73286 14.6369 4.17231 15.7655 3.94215C16.8942 3.71198 18.0658 3.82261 19.1314 4.25995C20.197 4.6973 21.1085 5.44162 21.75 6.3983C22.3915 7.35497 22.7341 8.48079 22.7342 9.63266C22.7421 11.1627 22.1428 12.6334 21.0679 13.7222C19.9929 14.811 18.53 15.4291 17 15.4408ZM17 5.30244C16.1406 5.28777 15.2962 5.52921 14.5745 5.99602C13.8527 6.46282 13.2862 7.13387 12.9471 7.92371C12.608 8.71355 12.5116 9.58644 12.6703 10.4312C12.8289 11.276 13.2354 12.0545 13.8379 12.6675C14.4405 13.2805 15.2118 13.7003 16.0538 13.8735C16.8957 14.0466 17.7701 13.9653 18.5657 13.6398C19.3612 13.3144 20.0419 12.7595 20.5211 12.0459C21.0003 11.3323 21.2562 10.4922 21.2563 9.63266C21.2622 9.06859 21.1566 8.50891 20.9457 7.98572C20.7348 7.46254 20.4226 6.98613 20.0272 6.58383C19.6318 6.18154 19.1608 5.86126 18.6413 5.64137C18.1219 5.42147 17.5641 5.3063 17 5.30244Z" fill="black"/>
<path d="M16.6453 33.0572C16.6453 33.0572 16.6453 33.0572 16.5566 32.9686C16.468 32.8799 16.601 33.0424 16.6453 33.0572Z" fill="black"/>
<path d="M17.4877 32.9686C17.4877 32.9686 17.4877 33.0425 17.399 33.0572C17.3103 33.072 17.4581 32.9981 17.4877 32.9686Z" fill="black"/>
<path d="M33.7445 35.6879L23.7392 26.8205C23.6747 26.7578 23.5983 26.7086 23.5146 26.6756C23.4309 26.6426 23.3414 26.6266 23.2515 26.6284H21.0051C23.9609 21.0124 27.7443 13.3274 27.7443 10.9036C27.7293 8.04636 26.5966 5.30842 24.5887 3.2756C22.5807 1.24277 19.8569 0.076524 17 0.0263672C14.1429 0.0801942 11.4197 1.24715 9.41021 3.27876C7.40067 5.31038 6.26355 8.04617 6.24095 10.9036C6.24095 13.3126 10.0539 21.0124 13.0097 26.6284H10.7485C10.6586 26.6266 10.5691 26.6426 10.4854 26.6756C10.4017 26.7086 10.3253 26.7578 10.2608 26.8205L0.255492 35.6879C0.140922 35.7851 0.0594524 35.9157 0.0223789 36.0613C-0.0146946 36.2069 -0.00553481 36.3605 0.0485879 36.5007C0.104338 36.6396 0.200168 36.7587 0.32387 36.843C0.447573 36.9272 0.593547 36.9727 0.743196 36.9736H33.2568C33.4065 36.9727 33.5524 36.9272 33.6761 36.843C33.7998 36.7587 33.8957 36.6396 33.9514 36.5007C34.0055 36.3605 34.0147 36.2069 33.9776 36.0613C33.9405 35.9157 33.8591 35.7851 33.7445 35.6879ZM7.73362 10.9036C7.78141 8.44854 8.76901 6.10528 10.4929 4.3566C12.2169 2.60792 14.5458 1.58703 17 1.50426C19.4623 1.55809 21.8065 2.57025 23.5342 4.32554C25.2619 6.08082 26.2368 8.44078 26.2516 10.9036C26.2516 12.8545 22.7194 20.17 19.276 26.6875C18.5075 28.1654 17.7242 29.6433 17 30.9143C16.2758 29.599 15.5221 28.1654 14.724 26.7023C11.2806 20.1848 7.73362 12.8545 7.73362 10.9036ZM2.69401 35.4958L11.0293 28.1063H13.8078C15.064 30.4561 16.0689 32.2444 16.3793 32.7912C16.4225 32.8644 16.4835 32.9254 16.5566 32.9686C16.5566 32.9686 16.5566 33.0425 16.6453 33.0572C16.7536 33.1333 16.8825 33.1746 17.0148 33.1755C17.1342 33.166 17.2502 33.1307 17.3547 33.072C17.3547 33.072 17.3547 33.072 17.4434 32.9833C17.513 32.9357 17.5731 32.8756 17.6207 32.806C17.9163 32.2592 18.9213 30.4709 20.1775 28.1211H22.9116L31.2469 35.5105L2.69401 35.4958Z" fill="black"/>
</svg>
