<svg width="36" height="36" viewBox="0 0 36 36" fill="none" xmlns="http://www.w3.org/2000/svg">
<path d="M6.85817 0.203518C6.07556 0.480906 5.70232 0.746234 5.19663 1.40955C4.66686 2.09699 4.5585 2.57941 4.5585 4.20755V5.61861L3.51101 5.66685C1.92171 5.75128 0.982576 6.30605 0.380568 7.54827L0.0434439 8.23571L0.00732343 19.9222C-0.0167569 27.5926 0.0193636 31.8378 0.103645 32.284C0.368528 33.7313 1.33174 34.9976 2.63208 35.6489L3.29429 35.9745H32.6723L33.3586 35.6489C34.2736 35.2268 35.0803 34.4549 35.5378 33.5624L35.9231 32.8388L35.9592 17.7272L35.9833 2.61559L35.7305 2.02463C35.4415 1.36131 34.6709 0.577389 33.9726 0.25176C33.5392 0.0467338 32.7204 0.0346735 20.5117 0.0105528C8.11035 -0.0135679 7.48426 -0.0135679 6.85817 0.203518ZM33.4669 2.61559L33.8161 2.96534V17.4619C33.8161 30.2579 33.792 31.9946 33.6355 32.3926C33.3826 32.9835 33.0094 33.3695 32.4315 33.6348C31.9739 33.8519 31.3117 33.8639 18.0435 33.8639C4.76318 33.8639 4.11302 33.8519 3.65549 33.6348C3.0896 33.3695 2.58392 32.8629 2.40331 32.3805C2.30699 32.1514 2.27087 28.3041 2.27087 20.3081V8.5734L2.55984 8.25983C2.87288 7.92214 3.42673 7.76535 4.08894 7.83772L4.4983 7.8739L4.5585 19.4156L4.6187 30.9574L4.89563 31.2348C5.29295 31.6448 6.06352 31.6087 6.43677 31.1745L6.72573 30.8368V17.0277C6.72573 2.24172 6.70165 2.73619 7.29162 2.3985C7.4361 2.31408 11.8428 2.2779 20.307 2.26584H33.1178L33.4669 2.61559Z" fill="#353535"/>
<path d="M9.41068 4.84675L9.07355 5.13619L9.03743 9.48998L9.00131 13.8317L9.36252 14.2297L9.71168 14.6277L13.7331 14.6639C15.9364 14.688 17.9231 14.6639 18.1518 14.6277C18.3686 14.5794 18.6816 14.4227 18.8381 14.2659L19.1271 13.9764V9.68294C19.1271 5.29298 19.103 5.05177 18.6575 4.71408C18.513 4.60554 17.3451 4.56936 14.1063 4.5573H9.7478L9.41068 4.84675ZM16.9358 9.58646L16.9599 12.3965H11.301V6.72816L14.1063 6.75228L16.8997 6.78846L16.9358 9.58646ZM21.6796 6.92112C21.3906 7.12615 21.3304 7.43972 21.5592 7.66887C21.7639 7.87389 31.1793 7.87389 31.384 7.66887C31.6127 7.43972 31.5525 7.12615 31.2636 6.92112C31.0348 6.75228 30.3726 6.72816 26.4716 6.72816C22.5706 6.72816 21.9084 6.75228 21.6796 6.92112ZM21.6796 10.298C21.3425 10.5272 21.3425 10.889 21.6796 11.1181C22.089 11.4076 30.8542 11.4076 31.2636 11.1181C31.408 11.0216 31.5284 10.8287 31.5284 10.7081C31.5284 10.5875 31.408 10.3945 31.2636 10.298C31.0348 10.1292 30.3726 10.1051 26.4716 10.1051C22.5706 10.1051 21.9084 10.1292 21.6796 10.298ZM21.7639 13.6508C21.3786 13.8438 21.3304 14.2538 21.6796 14.495C21.9204 14.6639 22.5224 14.688 26.4716 14.688C30.4207 14.688 31.0228 14.6639 31.2636 14.495C31.6127 14.2538 31.5646 13.8438 31.1672 13.6387C30.7458 13.4337 22.1853 13.4337 21.7639 13.6508ZM9.15783 17.1242C8.92907 17.3533 8.98927 17.6669 9.27824 17.8719C9.51904 18.0408 10.7592 18.0649 20.2709 18.0649C29.7826 18.0649 31.0228 18.0408 31.2636 17.8719C31.5525 17.6669 31.6127 17.3533 31.384 17.1242C31.1793 16.9192 9.36252 16.9192 9.15783 17.1242ZM9.10967 20.6699C8.97723 20.9473 8.98927 21.0197 9.24212 21.2126C9.507 21.4297 9.9284 21.4418 20.2589 21.4418C29.7826 21.4418 31.0228 21.4177 31.2636 21.2488C31.5525 21.0438 31.6127 20.7302 31.384 20.5011C31.2756 20.3925 28.6388 20.3564 20.2468 20.3564H9.25416L9.10967 20.6699ZM9.10967 24.0348C9.00131 24.288 9.01335 24.3724 9.19395 24.5775C9.41068 24.8066 9.5672 24.8187 14.0823 24.8187C18.1639 24.8187 18.7779 24.7946 18.9344 24.6257C19.1632 24.4086 19.1873 24.083 18.9826 23.878C18.8742 23.7694 17.61 23.7332 14.0461 23.7332H9.25416L9.10967 24.0348ZM21.5592 23.878C21.3545 24.083 21.3786 24.4086 21.6074 24.6257C21.7639 24.7946 22.3779 24.8187 26.4716 24.8187C30.5652 24.8187 31.1793 24.7946 31.3358 24.6257C31.5646 24.4086 31.5886 24.083 31.384 23.878C31.1793 23.6729 21.7639 23.6729 21.5592 23.878ZM9.10967 27.4117C9.00131 27.6649 9.01335 27.7493 9.19395 27.9544C9.41068 28.1835 9.5672 28.1956 14.0823 28.1956C18.1639 28.1956 18.7779 28.1715 18.9344 28.0026C19.1632 27.7855 19.1873 27.4599 18.9826 27.2549C18.8742 27.1463 17.61 27.1101 14.0461 27.1101H9.25416L9.10967 27.4117ZM21.5592 27.2549C21.3545 27.4599 21.3786 27.7855 21.6074 28.0026C21.7639 28.1715 22.3779 28.1956 26.4716 28.1956C30.5652 28.1956 31.1793 28.1715 31.3358 28.0026C31.5646 27.7855 31.5886 27.4599 31.384 27.2549C31.1793 27.0498 21.7639 27.0498 21.5592 27.2549ZM9.13375 30.7162C8.96519 31.0418 8.97723 31.1624 9.20599 31.3795C9.36252 31.5484 9.97656 31.5725 14.0221 31.5725C16.996 31.5725 18.7418 31.5242 18.8983 31.4519C19.1512 31.3071 19.1993 30.8489 18.9826 30.6318C18.8742 30.5232 17.61 30.487 14.0461 30.487C9.43476 30.487 9.25416 30.4991 9.13375 30.7162ZM21.5592 30.6318C21.3545 30.8368 21.3786 31.1624 21.6074 31.3795C21.7639 31.5484 22.3779 31.5725 26.4716 31.5725C30.5652 31.5725 31.1793 31.5484 31.3358 31.3795C31.5646 31.1624 31.5886 30.8368 31.384 30.6318C31.1793 30.4267 21.7639 30.4267 21.5592 30.6318Z" fill="#353535"/>
</svg>
