<?xml version="1.0" standalone="no"?>
<!DOCTYPE svg PUBLIC "-//W3C//DTD SVG 20010904//EN"
 "http://www.w3.org/TR/2001/REC-SVG-20010904/DTD/svg10.dtd">
<svg version="1.0" xmlns="http://www.w3.org/2000/svg"
 width="500.000000pt" height="500.000000pt" viewBox="0 0 500.000000 500.000000"
 preserveAspectRatio="xMidYMid meet">

<g transform="translate(0.000000,500.000000) scale(0.100000,-0.100000)"
fill="#000000" stroke="none">
<path d="M2595 4575 c83 -40 134 -88 227 -213 60 -81 67 -95 54 -105 -24 -19
-35 -60 -26 -98 5 -22 8 -26 9 -12 1 27 46 63 77 63 33 0 30 15 -11 47 -20 15
-71 76 -115 135 -83 112 -131 155 -218 194 -79 36 -77 28 3 -11z"/>
<path d="M2547 4155 c-52 -20 -90 -48 -129 -98 -29 -36 -30 -40 -8 -24 51 36
106 57 155 57 77 2 127 13 139 33 26 42 -74 62 -157 32z"/>
<path d="M2310 4080 c0 -5 5 -10 10 -10 6 0 10 5 10 10 0 6 -4 10 -10 10 -5 0
-10 -4 -10 -10z"/>
<path d="M2870 4084 c0 -16 60 -73 115 -110 37 -26 44 -34 29 -34 -25 0 -39
-15 -48 -50 -4 -18 -1 -16 9 8 12 25 21 32 43 32 35 0 72 -34 47 -43 -9 -4
-15 -19 -15 -37 0 -16 -3 -30 -7 -30 -18 -1 -34 -19 -43 -50 l-9 -33 25 24
c13 12 22 29 20 36 -8 19 5 16 20 -4 10 -14 15 -15 25 -6 10 10 20 6 51 -18
21 -17 38 -35 38 -40 0 -6 -5 -7 -11 -4 -22 14 -66 -17 -97 -68 -18 -29 -32
-57 -32 -62 0 -6 14 13 30 42 47 82 94 106 102 52 4 -25 0 -33 -21 -44 -14 -8
-21 -14 -16 -14 6 -1 17 4 25 9 17 10 50 -14 50 -38 0 -12 -3 -12 -15 -2 -8 6
-20 10 -27 7 -9 -4 -8 -6 3 -6 9 -1 22 -7 28 -15 16 -19 -1 -52 -30 -61 -11
-4 -18 -9 -16 -12 3 -2 16 1 29 8 12 7 26 12 31 11 15 -4 7 85 -9 99 -11 9
-14 23 -10 48 4 28 3 32 -4 16 -9 -16 -10 -14 -6 12 5 28 0 36 -31 62 -31 26
-37 36 -35 66 2 24 -4 42 -18 57 -11 12 -17 24 -14 27 3 3 12 -3 20 -13 8 -11
14 -14 14 -7 0 6 -14 20 -31 29 -17 9 -59 35 -93 57 l-61 39 41 6 c33 5 94 32
94 43 0 8 -89 -1 -107 -11 -32 -18 -50 -15 -67 10 -9 12 -16 18 -16 12z m215
-224 c8 -25 -3 -62 -16 -55 -12 8 -12 75 0 75 5 0 13 -9 16 -20z"/>
<path d="M2302 4040 c0 -14 2 -19 5 -12 2 6 2 18 0 25 -3 6 -5 1 -5 -13z"/>
<path d="M2333 4025 c0 -22 2 -30 4 -17 2 12 2 30 0 40 -3 9 -5 -1 -4 -23z"/>
<path d="M2292 3990 c0 -14 2 -19 5 -12 2 6 2 18 0 25 -3 6 -5 1 -5 -13z"/>
<path d="M2680 3954 c-30 -13 -75 -24 -100 -24 -44 0 -130 -36 -130 -54 0 -5
34 -6 78 -2 85 8 176 43 213 82 28 30 13 30 -61 -2z"/>
<path d="M2282 3940 c0 -14 2 -19 5 -12 2 6 2 18 0 25 -3 6 -5 1 -5 -13z"/>
<path d="M2272 3890 c0 -14 2 -19 5 -12 2 6 2 18 0 25 -3 6 -5 1 -5 -13z"/>
<path d="M2247 3808 c-9 -29 -15 -54 -13 -56 2 -2 12 20 21 48 9 28 15 53 13
55 -2 3 -12 -19 -21 -47z"/>
<path d="M2333 3820 c0 -25 2 -35 4 -22 2 12 2 32 0 45 -2 12 -4 2 -4 -23z"/>
<path d="M2923 3834 c-37 -28 -43 -64 -15 -85 14 -11 15 -11 5 1 -22 24 -15
52 20 81 40 35 33 37 -10 3z"/>
<path d="M2322 3745 c0 -16 2 -22 5 -12 2 9 2 23 0 30 -3 6 -5 -1 -5 -18z"/>
<path d="M2172 3634 c-29 -57 -52 -108 -51 -112 0 -4 25 42 55 102 30 59 54
110 52 112 -2 2 -27 -44 -56 -102z"/>
<path d="M2943 3733 c9 -2 23 -2 30 0 6 3 -1 5 -18 5 -16 0 -22 -2 -12 -5z"/>
<path d="M2306 3684 c-4 -14 -5 -28 -3 -31 3 -2 8 8 11 23 4 14 5 28 3 31 -3
2 -8 -8 -11 -23z"/>
<path d="M2251 3528 c-23 -62 -46 -120 -52 -128 -9 -13 -10 -12 -5 3 3 11 0
17 -10 17 -13 0 -13 -4 2 -29 10 -17 21 -28 26 -25 5 3 5 11 1 17 -4 7 0 6 10
-2 20 -16 23 -25 5 -15 -7 4 -2 -6 12 -22 14 -16 27 -31 29 -34 2 -3 1 3 -2
12 -3 10 26 -10 66 -44 82 -69 177 -118 240 -124 l42 -3 -45 9 c-87 19 -170
69 -264 161 l-90 86 43 112 c24 62 41 114 38 117 -2 2 -23 -46 -46 -108z"/>
<path d="M3072 3605 c-17 -14 -34 -25 -38 -26 -11 -1 -89 -88 -83 -93 2 -1 29
0 59 4 50 7 52 7 15 9 l-40 2 45 41 c25 22 59 47 75 54 20 9 24 13 12 14 -10
0 -15 5 -12 10 10 17 -2 11 -33 -15z m27 2 c-2 -1 -13 -9 -24 -17 -19 -14 -19
-14 -6 3 7 9 18 17 24 17 6 0 8 -1 6 -3z"/>
<path d="M3210 3511 c0 -6 4 -13 10 -16 6 -3 7 1 4 9 -7 18 -14 21 -14 7z"/>
<path d="M2096 3470 c-9 -22 -16 -48 -16 -58 1 -9 9 8 20 38 22 65 20 79 -4
20z"/>
<path d="M3098 3503 c6 -2 18 -2 25 0 6 3 1 5 -13 5 -14 0 -19 -2 -12 -5z"/>
<path d="M3236 3467 c3 -10 9 -15 12 -12 3 3 0 11 -7 18 -10 9 -11 8 -5 -6z"/>
<path d="M3252 3410 c0 -19 2 -27 5 -17 2 9 2 25 0 35 -3 9 -5 1 -5 -18z"/>
<path d="M2072 3370 c0 -14 2 -19 5 -12 2 6 2 18 0 25 -3 6 -5 1 -5 -13z"/>
<path d="M3200 3328 c-42 -39 -42 -40 -10 -20 19 11 41 30 49 42 19 29 12 25
-39 -22z"/>
<path d="M2192 3298 c-1 -34 -7 -58 -14 -61 -9 -4 -8 -6 2 -6 8 -1 26 -27 39
-58 35 -80 111 -156 260 -262 163 -115 201 -156 201 -213 0 -91 -90 -205 -203
-259 -34 -16 -51 -27 -37 -23 122 32 250 175 250 280 0 65 -22 89 -199 217
-143 102 -220 177 -255 244 -33 66 -33 76 4 90 18 7 30 18 30 29 0 16 -2 15
-16 -4 -8 -12 -24 -22 -34 -22 -16 0 -20 9 -23 53 l-3 52 -2 -57z"/>
<path d="M2080 3317 c0 -22 52 -77 72 -77 7 1 2 7 -12 14 -13 8 -32 29 -42 47
-12 22 -18 27 -18 16z"/>
<path d="M3090 3265 c-14 -8 -20 -14 -15 -14 6 0 21 6 35 14 14 8 21 14 15 14
-5 0 -21 -6 -35 -14z"/>
<path d="M2980 3225 c-19 -7 -28 -14 -20 -14 8 0 29 6 45 14 39 17 21 18 -25
0z"/>
<path d="M2895 3200 c-13 -5 -14 -9 -5 -9 8 0 24 4 35 9 13 5 14 9 5 9 -8 0
-24 -4 -35 -9z"/>
<path d="M2995 3195 c-16 -8 -23 -14 -15 -14 8 0 26 6 40 14 32 18 15 18 -25
0z"/>
<path d="M2820 3180 c-20 -6 -21 -8 -5 -8 11 0 29 3 40 8 25 11 -1 11 -35 0z"/>
<path d="M2892 3155 c-28 -24 -63 -99 -61 -134 0 -9 8 10 19 42 21 68 42 94
84 106 24 7 26 9 9 10 -12 1 -35 -10 -51 -24z"/>
<path d="M2758 3163 c6 -2 18 -2 25 0 6 3 1 5 -13 5 -14 0 -19 -2 -12 -5z"/>
<path d="M2688 3153 c12 -2 30 -2 40 0 9 3 -1 5 -23 4 -22 0 -30 -2 -17 -4z"/>
<path d="M3063 3095 c0 -27 2 -38 4 -22 2 15 2 37 0 50 -2 12 -4 0 -4 -28z"/>
<path d="M3071 3004 c-2 -40 32 -129 110 -295 43 -92 88 -199 98 -236 11 -37
20 -61 20 -52 2 35 -35 133 -111 294 -44 94 -88 202 -99 240 -10 39 -18 61
-18 49z"/>
<path d="M2823 2925 c0 -44 2 -61 4 -37 2 23 2 59 0 80 -2 20 -4 1 -4 -43z"/>
<path d="M2832 2800 c0 -19 2 -27 5 -17 2 9 2 25 0 35 -3 9 -5 1 -5 -18z"/>
<path d="M2842 2730 c0 -19 2 -27 5 -17 2 9 2 25 0 35 -3 9 -5 1 -5 -18z"/>
<path d="M2851 2664 c0 -12 -8 -27 -16 -34 -8 -7 -15 -20 -14 -29 0 -13 2 -13
8 2 4 10 11 19 16 19 6 1 15 8 21 16 27 37 135 -43 182 -135 11 -21 45 -100
75 -176 75 -187 115 -254 211 -355 45 -48 92 -100 104 -117 13 -16 20 -23 16
-15 -4 8 -18 29 -30 45 -12 17 -36 59 -53 95 -17 36 -31 59 -31 52 0 -7 7 -27
16 -43 25 -50 10 -44 -46 18 -67 76 -108 150 -180 328 -68 169 -93 215 -145
267 -37 37 -96 65 -114 54 -5 -4 -12 2 -14 11 -4 15 -5 14 -6 -3z"/>
<path d="M2863 2560 c0 -25 2 -35 4 -22 2 12 2 32 0 45 -2 12 -4 2 -4 -23z"/>
<path d="M2821 2500 c-2 -50 30 -132 46 -117 4 5 1 12 -6 17 -8 4 -20 34 -27
67 -7 32 -13 47 -13 33z"/>
<path d="M2873 2455 c0 -27 2 -38 4 -22 2 15 2 37 0 50 -2 12 -4 0 -4 -28z"/>
<path d="M2388 2403 c7 -3 16 -2 19 1 4 3 -2 6 -13 5 -11 0 -14 -3 -6 -6z"/>
<path d="M1848 2393 c29 -2 74 -2 100 0 26 2 2 3 -53 3 -55 0 -76 -1 -47 -3z"/>
<path d="M2338 2393 c6 -2 18 -2 25 0 6 3 1 5 -13 5 -14 0 -19 -2 -12 -5z"/>
<path d="M3302 2375 c0 -16 2 -22 5 -12 2 9 2 23 0 30 -3 6 -5 -1 -5 -18z"/>
<path d="M1768 2383 c7 -3 16 -2 19 1 4 3 -2 6 -13 5 -11 0 -14 -3 -6 -6z"/>
<path d="M2043 2383 c15 -2 37 -2 50 0 12 2 0 4 -28 4 -27 0 -38 -2 -22 -4z"/>
<path d="M2273 2383 c9 -2 25 -2 35 0 9 3 1 5 -18 5 -19 0 -27 -2 -17 -5z"/>
<path d="M1696 2359 c-48 -26 -121 -98 -164 -163 -52 -80 -38 -86 36 -15 82
81 117 105 185 129 28 11 44 19 34 20 -35 0 -123 -50 -196 -111 -40 -34 -68
-52 -62 -40 23 43 136 153 180 176 25 13 42 24 36 24 -5 0 -28 -9 -49 -20z"/>
<path d="M2163 2373 c9 -2 23 -2 30 0 6 3 -1 5 -18 5 -16 0 -22 -2 -12 -5z"/>
<path d="M1833 2333 c15 -2 39 -2 55 0 15 2 2 4 -28 4 -30 0 -43 -2 -27 -4z"/>
<path d="M1972 2311 c110 -36 181 -88 418 -313 75 -71 163 -148 195 -173 61
-45 209 -127 255 -140 14 -4 -24 18 -85 48 -125 63 -197 120 -408 318 -79 75
-174 158 -211 184 -70 50 -166 95 -201 94 -11 0 6 -8 37 -18z"/>
<path d="M3313 2270 c0 -36 2 -50 4 -32 2 17 2 47 0 65 -2 17 -4 3 -4 -33z"/>
<path d="M3323 2125 c0 -22 2 -30 4 -17 2 12 2 30 0 40 -3 9 -5 -1 -4 -23z"/>
<path d="M3331 2064 c0 -11 3 -14 6 -6 3 7 2 16 -1 19 -3 4 -6 -2 -5 -13z"/>
<path d="M3477 1785 c9 -19 18 -33 21 -31 4 5 -26 66 -33 66 -3 0 3 -16 12
-35z"/>
<path d="M1370 1140 c0 -33 4 -60 10 -60 10 0 14 30 10 83 -1 19 3 27 15 27
21 0 30 -27 15 -45 -11 -13 -10 -14 3 -9 43 16 20 64 -30 64 -21 0 -23 -4 -23
-60z"/>
<path d="M1610 1138 c0 -34 3 -59 6 -55 3 3 6 28 6 56 -1 43 2 51 18 51 23 0
33 -25 14 -40 -8 -7 -14 -15 -14 -19 1 -13 41 -54 47 -47 4 3 -4 17 -16 30
-19 20 -20 24 -7 29 21 8 21 43 0 51 -46 18 -54 9 -54 -56z"/>
<path d="M1872 1184 c-36 -25 -24 -104 16 -104 16 1 16 1 0 11 -22 12 -24 71
-3 89 38 31 76 -24 50 -74 -16 -30 -13 -33 9 -10 23 22 21 81 -3 94 -27 14
-43 13 -69 -6z"/>
<path d="M2133 1193 c13 -4 17 -15 17 -59 0 -30 5 -54 10 -54 6 0 10 24 10 54
0 44 4 55 18 59 9 3 -3 5 -28 5 -25 0 -37 -2 -27 -5z"/>
<path d="M2367 1193 c-4 -3 -7 -30 -7 -60 l0 -53 38 1 c30 2 32 3 10 6 -26 4
-28 8 -28 53 0 45 2 49 28 53 26 4 26 4 -4 6 -17 0 -34 -2 -37 -6z"/>
<path d="M2620 1130 c0 -64 -2 -72 -22 -80 -17 -6 -18 -9 -6 -9 28 -1 48 39
48 96 0 28 -4 55 -10 58 -6 4 -10 -20 -10 -65z"/>
<path d="M2847 1186 c-4 -9 -2 -18 2 -21 5 -2 11 -14 14 -25 4 -15 0 -20 -15
-20 -15 0 -18 5 -13 23 5 20 5 20 -9 -3 -21 -35 -20 -37 15 -32 21 3 34 -1 44
-14 22 -29 18 -2 -9 55 -16 34 -26 47 -29 37z"/>
<path d="M3270 1168 c0 -22 3 -29 9 -20 6 10 13 2 25 -27 18 -47 22 -49 29
-21 3 11 2 18 -2 16 -3 -2 -15 16 -25 40 -21 52 -36 57 -36 12z"/>
<path d="M3355 1171 c-19 -38 -19 -55 0 -21 14 24 14 24 15 -22 0 -27 5 -48
10 -48 13 0 13 107 0 115 -5 3 -16 -8 -25 -24z"/>
<path d="M3567 1193 c-4 -3 -7 -30 -7 -60 l0 -53 38 1 c30 2 32 3 10 6 -26 4
-28 8 -28 53 0 45 2 49 28 53 26 4 26 4 -4 6 -17 0 -34 -2 -37 -6z"/>
<path d="M4165 1170 l-320 -5 318 -4 c174 -2 322 -4 327 -5 6 -1 10 3 11 9 1
12 41 11 -336 5z"/>
<path d="M540 1155 c-7 -8 -9 -15 -4 -15 80 -4 591 3 600 8 7 4 -116 6 -273 4
-190 -2 -289 1 -298 8 -9 7 -16 6 -25 -5z"/>
<path d="M3060 1120 c0 -5 9 -10 20 -10 11 0 20 5 20 10 0 6 -9 10 -20 10 -11
0 -20 -4 -20 -10z"/>
</g>
</svg>
